# Blender v2.68 (sub 0) OBJ File: 'pferd_1.blend'
# www.blender.org
mtllib horse.mtl
o Pferd_pf_01
v -0.049112 -3.371968 2.362481
v -6.757630 -4.022660 2.615643
v -6.395865 -4.348451 -8.126771
v 3.376184 -4.406520 -9.468967
v -6.663496 -2.100472 -21.809254
v -0.374941 -3.095059 -22.640635
v 6.221068 -4.044927 2.278504
v 3.966883 -1.181536 -21.027863
v -1.480190 -0.206490 -29.553408
v -3.998370 2.723630 -33.347260
v 0.057563 3.012940 -34.026440
v 1.357381 -1.224957 -30.589417
v 2.715584 1.184023 -34.524517
v 3.891805 19.268692 -23.869362
v -3.315164 18.912968 -30.014511
v -3.229513 19.552641 -24.070902
v 3.136506 17.697239 4.332119
v 0.073066 19.450146 4.360571
v -4.101581 15.675187 -6.808254
v -3.358327 18.933222 4.851215
v -8.594501 10.660024 5.467998
v -7.832888 14.436942 -9.466900
v -10.405774 8.155582 -7.664099
v -10.269761 -0.601192 3.536420
v -10.114764 4.905602 -18.013140
v -8.937783 -0.232132 -8.649129
v -6.387321 18.299314 -25.397081
v -8.798404 14.857409 -32.184273
v -11.629060 6.499633 -24.771799
v -10.134326 9.566425 -33.172413
v -12.062179 -1.157723 -28.459854
v -10.774264 1.626433 -32.132694
v -3.780242 15.637340 -34.451725
v -6.156107 10.965271 -35.222908
v 2.195652 11.754155 -36.241024
v 5.997807 8.500099 -37.369595
v 9.605895 1.596859 3.463602
v 8.809304 -1.466645 -9.563482
v 9.789495 7.225855 4.806702
v 11.692142 7.409025 -7.202626
v 10.962965 2.319486 -20.272924
v 10.065629 7.300180 -17.191813
v 5.048193 12.905203 6.328020
v 8.456657 14.147502 -7.791997
v 11.225938 0.713143 -28.997711
v 11.436347 8.227800 -25.687588
v 10.199240 6.541102 -34.460117
v 8.861653 15.931561 -24.519970
v 8.852780 15.132190 -33.472221
v 6.480935 17.856741 -30.015610
v -9.263615 6.938663 16.559584
v -9.128529 -2.262460 12.450264
v 9.168434 7.376557 16.214615
v 10.303690 1.836612 15.306525
v 7.310067 11.673042 12.581717
v 9.776698 -4.397378 11.128558
v 3.691777 -6.224946 9.474969
v -5.296231 -5.954707 10.418901
v 3.478603 5.061202 22.618401
v 3.985262 10.818451 21.807146
v -0.257593 4.059694 21.399563
v -0.204633 -2.387841 19.037762
v 3.719880 -5.090936 18.660873
v -4.328482 10.988747 22.693985
v -3.835157 1.522327 22.244934
v -4.017938 -3.988643 18.890148
v 4.634604 -7.447236 -34.768120
v -4.845131 -8.809594 -28.105932
v -11.746569 -9.640704 -26.416332
v 9.806871 -8.292356 -27.494116
v 9.286643 -4.865705 -31.655346
v 10.196131 -15.698190 -34.190948
v 9.819897 -14.406676 -36.401226
v -4.974432 -11.092635 -26.341160
v 4.019588 -12.814002 -34.166729
v 5.629256 19.553251 11.975078
v -6.358438 17.012383 11.943310
v -5.634519 24.494568 20.267859
v -5.748405 15.828187 17.707115
v 5.858113 20.279781 18.719225
v -3.129626 15.243676 20.687460
v 3.797924 15.404446 20.799644
v 3.748843 21.754196 23.602470
v 1.224387 22.677172 25.272049
v 2.927512 -6.128995 14.620397
v -2.695256 -6.239202 14.925859
v 8.524755 -5.445933 19.298674
v 6.832475 6.307186 20.614262
v 6.333648 12.432878 17.657579
v -7.414869 -0.517919 20.910833
v -6.064592 11.202059 20.466948
v -9.625799 -9.503154 13.889823
v -9.571137 -6.380994 17.612328
v -4.442434 -9.682496 17.856928
v -5.118474 -10.806718 13.790868
v 10.146926 -12.021827 14.201408
v 9.236115 -14.088849 10.265776
v 5.167381 -9.941621 11.041959
v 6.443958 -15.211442 13.473744
v -6.060768 -15.194022 16.162184
v 3.719144 16.011776 -6.847570
v -7.760581 11.287987 12.207863
v -7.678834 -1.249369 -32.894550
v 6.420859 -4.208360 -34.139801
v -8.301514 -3.758967 11.122067
v 7.546016 -6.348304 8.910120
v 6.762256 -2.796010 20.546589
v -6.754302 -8.970912 19.252563
v -8.732824 -8.786790 -30.257969
v -8.777397 -16.372890 -27.278929
v 7.154655 -13.806668 -32.231667
v -6.242425 -21.246655 12.073538
v 3.248080 26.371403 27.800556
v -3.545502 27.705887 28.152536
v 2.816181 30.786369 16.815653
v -2.844364 30.511490 16.425560
v -0.032931 32.064659 17.201044
v -4.466259 30.949696 27.708857
v 4.165032 30.891613 27.810072
v -2.378301 27.410782 27.871004
v 1.018522 26.032238 28.783257
v -1.105080 27.476040 26.947138
v 2.542244 37.682964 29.698944
v -1.949394 37.621098 29.955595
v -0.035013 33.913342 38.537319
v -1.247271 21.954868 44.821022
v -2.824263 20.687754 43.231094
v 2.203060 21.506834 44.247505
v -5.247062 29.151146 34.110119
v -2.953270 19.354500 41.018166
v 2.974660 19.631573 41.126644
v -0.233705 21.755449 35.507858
v -0.035463 19.687725 39.071896
v 0.196522 18.161572 39.887779
v -0.348704 19.078182 45.042088
v 1.111431 17.412642 42.848289
v -1.406927 17.682734 43.120026
v -8.817915 -22.452179 14.787004
v 6.559315 -23.752556 10.272526
v 8.147622 -23.725552 12.093779
v 9.434698 -23.862602 11.343705
v 9.573061 -21.663784 9.063751
v 6.479255 -29.873825 8.694383
v -9.187289 -21.451088 12.853860
v 9.070016 -28.501507 8.260225
v -10.015359 -30.523258 13.439259
v -5.452583 -30.358986 13.408167
v 5.891392 -30.960316 10.224737
v 8.428913 -30.851120 11.383485
v 10.322136 -30.632793 10.802262
v -6.180721 -28.878334 11.507689
v 11.013559 -33.193005 9.171202
v -5.486066 -32.118664 12.070607
v -10.327064 -30.300011 11.387383
v 5.748122 -36.071102 9.481831
v -4.943573 -35.937862 11.990533
v -10.133813 -35.794121 12.262344
v -10.299670 -37.036568 14.564910
v -10.253148 -37.974323 18.145781
v -6.611650 -37.879429 19.832531
v 5.826541 -36.840496 15.072675
v 11.839580 -36.727200 13.728879
v 10.736695 -36.124172 9.307254
v -4.019691 -37.691978 15.240627
v -10.708817 -15.402978 -31.084780
v -11.605488 -13.077279 -27.308945
v -6.554908 -17.146595 -28.219828
v -6.923294 -15.022651 -30.828737
v 5.545821 -17.651512 -34.247536
v 4.438998 -14.057639 -36.463070
v -8.754125 -14.509944 -31.900888
v 7.348489 -14.857982 -38.154053
v 7.752502 -17.534214 -33.135674
v -10.395188 -18.907856 -28.638262
v -6.898548 -24.244511 -29.664820
v 6.618692 -24.893402 -39.062290
v 8.860415 -26.061737 -38.472420
v 7.988534 -25.848495 -36.183411
v -9.090035 -25.284801 -31.172773
v -11.099980 -29.319153 -27.737881
v -7.750420 -25.565739 -27.669075
v 5.618781 -29.129604 -36.405495
v 8.792192 -31.163372 -35.431042
v 8.760211 -31.147099 -37.985855
v -11.299177 -31.161968 -27.963734
v -7.265033 -29.536011 -26.467205
v 5.451015 -31.315483 -37.351898
v -7.835452 -31.096085 -27.972872
v 10.769170 -38.049568 -31.936405
v 9.710772 -37.387131 -36.224812
v 8.866158 -34.545860 -32.231533
v -11.732214 -35.938087 -26.809557
v -12.673894 -36.176682 -22.905415
v -9.250856 -35.957691 -19.748907
v -6.141004 -33.847668 -23.301107
v -7.132909 -36.199505 -27.702778
v 4.347236 -37.368778 -35.708115
v 4.769589 -38.377232 -30.510448
v 7.204251 -37.232479 -37.380432
v -5.878098 -36.696392 -23.238321
v -0.034759 37.767174 37.424931
v 2.792928 37.976604 37.553268
v -2.862528 37.976772 37.552715
v -4.810749 33.954536 35.803959
v 4.861047 33.799549 35.297771
v 4.260896 28.172020 32.449078
v 4.760510 26.521973 34.746284
v -4.025327 26.376270 33.953171
v 1.081046 25.376184 32.612278
v -1.908880 26.317871 32.044960
v 5.515092 40.246979 33.345848
v -5.142885 40.348785 33.599945
vn 0.000397 -0.987152 -0.159642
vn -0.400372 -0.908048 -0.122990
vn -0.472793 -0.879391 -0.055696
vn 0.219916 -0.971068 -0.092990
vn -0.103458 -0.865505 0.490066
vn 0.445753 -0.879269 -0.167852
vn 0.144047 -0.949553 -0.278451
vn 0.223701 -0.865017 -0.449080
vn -0.708914 -0.675893 -0.201422
vn 0.238624 -0.964629 0.111820
vn -0.277322 -0.431532 -0.858394
vn 0.266030 0.963683 0.022462
vn 0.376354 0.885891 -0.271126
vn -0.168004 0.984558 0.048799
vn 0.773980 0.569689 -0.276376
vn 0.257210 0.963256 0.076998
vn 0.099796 0.851711 -0.514359
vn -0.646199 0.669820 -0.365673
vn -0.944914 -0.326212 -0.025697
vn -0.888913 0.455306 0.049867
vn -0.990692 0.134617 0.019196
vn -0.911496 -0.399701 -0.096835
vn -0.987976 -0.114872 0.103214
vn -0.717917 0.684866 0.124638
vn -0.736503 0.529557 -0.420759
vn -0.957915 0.252388 0.136662
vn -0.781182 0.085971 -0.618305
vn -0.963500 -0.079562 -0.255562
vn -0.748100 -0.136631 -0.649312
vn -0.317209 0.029664 -0.947874
vn -0.177892 0.586993 -0.789788
vn -0.057772 0.220099 -0.973754
vn 0.020539 -0.361370 -0.932188
vn -0.459120 -0.310984 -0.832118
vn 0.953917 0.289804 0.077456
vn 0.968200 -0.247475 -0.036470
vn 0.995605 0.092349 -0.014100
vn 0.768487 -0.633564 -0.089145
vn 0.993133 0.103519 0.054323
vn 0.873836 0.476669 -0.095676
vn 0.721488 0.683370 0.111332
vn 0.952818 -0.257759 0.160222
vn 0.986297 -0.099521 -0.131474
vn 0.988250 0.152470 0.008026
vn 0.830012 0.012452 -0.557573
vn 0.820704 0.570116 0.037324
vn -0.943968 0.204871 0.258705
vn 0.932768 0.358745 -0.034913
vn 0.973785 0.058107 0.219886
vn -0.251320 -0.891171 -0.377606
vn 0.054109 -0.031892 0.998016
vn 0.429060 0.196844 0.881558
vn 0.156102 -0.285287 0.945616
vn 0.182226 -0.254189 0.949797
vn 0.001862 -0.587909 0.808893
vn -0.403790 -0.587176 0.701529
vn 0.041597 -0.266030 0.963042
vn 0.931700 -0.137974 -0.335978
vn -0.937651 -0.184515 0.294473
vn 0.710593 -0.493576 0.501358
vn 0.889523 -0.015961 -0.456557
vn 0.916227 -0.172430 0.361614
vn 0.844630 -0.279611 0.456465
vn -0.957244 0.248482 -0.147954
vn -0.925962 0.105716 0.362438
vn -0.994690 0.072817 0.072634
vn -0.442305 0.048311 0.895535
vn 0.394269 -0.184484 0.900266
vn -0.013489 -0.919431 0.392987
vn -0.575304 -0.786950 0.222877
vn 0.571429 -0.799097 0.186712
vn -0.151982 -0.870327 -0.468368
vn 0.711417 0.148991 0.686758
vn 0.514878 -0.299753 0.803125
vn 0.905271 0.175787 0.386731
vn 0.916654 0.282907 0.282266
vn -0.992157 -0.103885 -0.069185
vn -0.905698 -0.102023 0.411389
vn -0.521531 -0.152348 0.839503
vn -0.838496 -0.137730 -0.527207
vn 0.684255 -0.332255 -0.649098
vn 0.404035 -0.439344 0.802301
vn 0.777337 -0.345439 0.525712
vn -0.736900 -0.326701 -0.591754
vn 0.865596 -0.276009 0.417737
vn -0.618244 -0.305887 0.723991
vn -0.162145 0.923276 -0.348155
vn -0.618824 0.785485 -0.004883
vn -0.322459 0.943937 0.070620
vn -0.147618 -0.318552 -0.936308
vn 0.658803 0.547502 -0.515915
vn 0.132939 0.038179 -0.990356
vn 0.364910 0.049287 -0.929716
vn -0.924833 0.376476 0.054262
vn 0.934446 0.269417 -0.232795
vn -0.812037 -0.459181 -0.360149
vn 0.421857 -0.526536 -0.738090
vn -0.351146 0.237800 0.905576
vn -0.819147 0.292764 0.493179
vn -0.150517 -0.343974 0.926817
vn -0.220801 -0.012329 -0.975219
vn -0.678976 0.094943 -0.727958
vn -0.063570 -0.246498 0.967040
vn -0.209754 -0.523942 0.825495
vn 0.955626 -0.118748 -0.269478
vn 0.603198 0.019593 -0.797327
vn 0.622456 -0.260414 0.738029
vn 0.654561 -0.367504 0.660665
vn 0.983856 0.085269 0.157231
vn 0.654714 0.607898 -0.449171
vn -0.642384 0.614643 -0.457717
vn -0.010376 0.831721 -0.555071
vn 0.993622 0.091739 -0.065340
vn -0.775750 -0.596271 0.206519
vn -0.987762 0.135350 -0.077212
vn 0.764763 -0.548021 0.338725
vn 0.040712 -0.582598 0.811701
vn -0.008606 -0.787896 0.615741
vn -0.208167 -0.971252 0.115390
vn -0.305368 -0.865108 -0.397839
vn -0.452101 0.836909 -0.308451
vn 0.479171 0.810236 -0.337443
vn 0.297220 0.704581 0.644337
vn -0.043092 0.431654 0.900998
vn -0.335185 0.191687 0.922422
vn -0.279092 0.699850 0.657491
vn -0.970336 0.135289 0.200171
vn -0.991485 -0.127415 -0.025788
vn -0.863979 -0.125767 0.487503
vn -0.753716 -0.559648 -0.344432
vn -0.800409 -0.566668 -0.195441
vn -0.050142 -0.820032 -0.570086
vn 0.020447 -0.675161 -0.737358
vn 0.906186 -0.357311 -0.226051
vn 0.665792 0.016511 0.745933
vn -0.060183 -0.388043 0.919645
vn -0.488479 -0.829707 0.269997
vn 0.869961 -0.480636 -0.110050
vn 0.426710 -0.874996 0.228645
vn 0.066439 -0.749138 -0.659017
vn -0.617603 -0.092624 0.780999
vn -0.173315 -0.194525 0.965453
vn -0.598590 -0.001648 -0.801019
vn 0.594287 0.093722 -0.798761
vn -0.844264 0.099582 -0.526536
vn -0.823847 -0.124821 0.552843
vn 0.883541 -0.065798 0.463668
vn 0.851863 0.285562 0.439009
vn -0.067354 0.287942 0.955260
vn 0.843776 0.318278 0.432112
vn -0.724448 0.010956 -0.689200
vn -0.759301 0.211066 0.615528
vn 0.575060 0.042055 -0.817011
vn 0.645955 0.117069 -0.754295
vn 0.441755 0.087313 -0.892850
vn 0.725578 0.066652 -0.684866
vn 0.664327 0.037202 -0.746483
vn -0.580401 -0.445051 -0.681906
vn -0.719413 -0.643452 -0.261483
vn 0.532670 -0.366222 -0.762963
vn -0.937681 0.217872 0.270669
vn -0.494522 -0.439406 0.749901
vn 0.699789 -0.463149 0.543779
vn 0.800195 -0.599475 -0.016572
vn 0.455763 -0.581713 -0.673666
vn -0.613605 -0.546068 -0.570330
vn 0.239174 -0.363811 0.900235
vn -0.694815 -0.505112 0.511887
vn 0.879574 -0.152104 0.450728
vn -0.957640 -0.206061 0.201056
vn -0.847621 0.018525 -0.530259
vn -0.782830 0.017335 -0.621967
vn 0.751091 -0.026185 -0.659658
vn -0.797571 -0.233253 0.556261
vn 0.096255 -0.259102 0.961028
vn -0.872768 -0.184820 0.451766
vn -0.814234 -0.048708 0.578448
vn 0.938444 -0.122806 -0.322794
vn 0.075381 0.198553 -0.977172
vn -0.441389 0.034639 -0.896634
vn 0.826807 0.156072 -0.540361
vn 0.832362 -0.032594 -0.553240
vn -0.892880 0.363750 0.265389
vn -0.840938 0.209906 0.498733
vn 0.055849 0.125370 -0.990509
vn -0.089938 -0.231422 -0.968657
vn 0.402753 0.162084 0.900815
vn 0.656392 -0.159978 0.737236
vn 0.723991 0.384106 0.572893
vn 0.763237 0.404828 0.503525
vn 0.602313 -0.213172 -0.769219
vn 0.623341 -0.106143 -0.774682
vn 0.659413 -0.569201 -0.491043
vn -0.692526 -0.125492 -0.710349
vn -0.832057 -0.423902 0.357677
vn 0.870693 0.348643 0.346843
vn -0.719779 -0.055330 -0.691946
vn -0.757561 -0.520371 -0.394055
vn -0.588275 -0.579150 -0.564318
vn -0.061586 -0.239631 0.968902
vn -0.516709 -0.473251 0.713431
vn 0.753136 -0.629322 0.191473
vn -0.007660 0.802179 0.597003
vn 0.985626 0.070009 0.153722
vn 0.923368 -0.333659 -0.189795
vn 0.264443 -0.844905 -0.464919
vn 0.753288 -0.489517 0.439192
vn 0.268044 0.561113 0.783105
vn 0.454939 -0.551836 -0.698904
vn -0.101718 -0.598163 -0.794855
vn -0.512436 0.844874 -0.153478
vn 0.550768 0.824335 -0.130650
g Pferd_pf_01_Material
usemtl Material
s 1
f 1//1 2//2 3//3
f 4//4 3//3 5//5
f 7//6 1//1 4//4
f 6//7 5//5 9//8
f 12//9 8//10 9//8
f 12//9 9//8 11//11
f 14//12 50//13 16//14
f 17//15 101//16 18//17
f 18//17 101//16 20//18
f 24//19 21//20 23//21
f 26//22 23//21 25//23
f 23//21 22//24 28//25
f 29//26 25//23 28//25
f 29//26 28//25 30//27
f 31//28 29//26 32//29
f 34//30 33//31 35//32
f 10//33 34//30 35//32
f 11//11 35//32 13//34
f 39//35 37//36 40//37
f 40//37 38//38 42//39
f 43//40 39//35 44//41
f 44//41 40//37 42//39
f 42//39 41//42 45//43
f 46//44 45//43 47//45
f 44//41 42//39 48//46
f 48//46 46//44 47//45
f 21//20 24//19 51//47
f 39//35 43//40 55//48
f 37//36 39//35 54//49
f 2//2 1//1 57//50
f 1//1 7//6 57//50
f 59//51 60//52 61//53
f 107//54 59//51 62//55
f 63//56 107//54 62//55
f 61//53 60//52 65//57
f 62//55 61//53 65//57
f 68//58 9//8 5//5
f 25//23 31//28 69//59
f 45//43 41//42 70//60
f 47//45 45//43 71//61
f 71//61 70//60 72//62
f 68//58 5//5 74//63
f 77//64 79//65 78//66
f 81//67 82//68 120//69
f 85//70 63//56 62//55
f 57//50 86//71 58//72
f 54//49 88//73 87//74
f 55//48 89//75 53//76
f 89//75 60//52 53//76
f 52//77 93//78 51//47
f 93//78 90//79 51//47
f 93//78 52//77 92//80
f 58//72 86//71 95//81
f 86//71 66//82 94//83
f 85//70 57//50 98//84
f 54//49 87//74 96//85
f 63//56 85//70 99//86
f 2//2 24//19 26//22
f 3//3 26//22 25//23
f 37//36 7//6 38//38
f 38//38 4//4 8//10
f 48//46 14//12 44//41
f 44//41 101//16 43//40
f 15//87 28//25 27//88
f 19//89 22//24 21//20
f 28//25 15//87 33//31
f 28//25 33//31 34//30
f 32//29 30//27 103//90
f 30//27 34//30 10//33
f 33//31 49//91 35//32
f 36//92 47//45 104//93
f 20//18 102//94 77//64
f 43//40 17//15 76//95
f 24//19 2//2 105//96
f 7//6 37//36 106//97
f 64//98 91//99 90//79
f 65//57 90//79 66//82
f 66//82 90//79 108//100
f 107//54 63//56 87//74
f 52//77 105//96 92//80
f 105//96 58//72 92//80
f 41//42 8//10 70//60
f 31//28 103//90 109//101
f 103//90 10//33 68//58
f 13//34 104//93 67//102
f 5//5 69//59 110//103
f 70//60 8//10 111//104
f 106//97 56//105 97//106
f 96//85 87//74 99//86
f 87//74 63//56 99//86
f 94//83 108//100 100//107
f 108//100 93//78 100//107
f 82//68 89//75 83//108
f 79//65 102//94 91//99
f 55//48 76//95 80//109
f 81//67 64//98 60//52
f 79//65 91//99 81//67
f 60//52 89//75 82//68
f 76//95 17//15 115//110
f 20//18 78//66 116//111
f 18//17 20//18 117//112
f 17//15 18//17 117//112
f 80//109 76//95 119//113
f 78//66 114//114 118//115
f 113//116 80//109 119//113
f 120//69 84//117 122//118
f 84//117 113//116 121//119
f 122//118 121//119 210//120
f 117//112 116//111 124//121
f 115//110 117//112 123//122
f 202//123 125//124 126//125
f 125//124 203//126 126//125
f 203//126 204//127 126//125
f 204//127 129//128 127//129
f 129//128 208//130 130//131
f 208//130 132//132 133//133
f 132//132 207//134 133//133
f 128//135 126//125 135//136
f 126//125 127//129 135//136
f 127//129 130//131 137//137
f 131//138 128//135 136//139
f 130//131 134//140 137//137
f 134//140 131//138 136//139
f 137//137 136//139 135//136
f 100//107 93//78 138//141
f 96//85 99//86 140//142
f 98//84 97//106 143//143
f 92//80 112//144 144//145
f 93//78 92//80 138//141
f 95//81 100//107 112//144
f 99//86 98//84 139//146
f 97//106 96//85 141//147
f 100//107 138//141 147//148
f 140//142 139//146 149//149
f 141//147 140//142 150//150
f 144//145 112//144 154//151
f 138//141 144//145 146//152
f 112//144 100//107 151//153
f 142//154 141//147 145//155
f 145//155 150//150 152//156
f 143//143 145//155 152//156
f 154//151 153//157 157//158
f 151//153 147//148 153//157
f 154//151 157//158 158//159
f 146//152 154//151 158//159
f 157//158 153//157 156//160
f 149//149 148//161 161//162
f 150//150 149//149 162//163
f 153//157 147//148 164//164
f 156//160 153//157 164//164
f 152//156 150//150 162//163
f 163//165 161//162 155//166
f 162//163 161//162 163//165
f 160//167 159//168 164//164
f 68//58 74//63 167//169
f 75//170 67//102 170//171
f 69//59 109//101 165//172
f 109//101 68//58 168//173
f 67//102 104//93 170//171
f 111//104 75//170 169//174
f 167//169 74//63 110//103
f 72//62 111//104 173//175
f 166//176 165//172 174//177
f 168//173 167//169 175//178
f 75//170 170//171 169//174
f 170//171 172//179 176//180
f 110//103 166//176 174//177
f 73//181 72//62 177//182
f 174//177 165//172 180//183
f 169//174 176//180 182//184
f 165//172 171//185 179//186
f 171//185 168//173 175//178
f 172//179 73//181 176//180
f 110//103 174//177 181//187
f 167//169 110//103 181//187
f 72//62 173//175 178//188
f 173//175 169//174 182//184
f 177//182 178//188 183//189
f 175//178 181//187 186//190
f 179//186 175//178 188//191
f 176//180 177//182 184//192
f 181//187 180//183 186//190
f 178//188 182//184 183//189
f 184//192 183//189 190//193
f 180//183 185//194 193//195
f 188//191 186//190 195//196
f 182//184 187//197 197//198
f 185//194 188//191 192//199
f 187//197 184//192 197//198
f 186//190 180//183 194//200
f 183//189 182//184 198//201
f 195//196 194//200 200//202
f 124//121 201//203 202//123
f 118//115 204//127 124//121
f 119//113 205//204 206//205
f 114//114 208//130 118//115
f 120//69 210//120 114//114
f 113//116 206//205 209//206
f 206//205 207//134 209//206
f 210//120 132//132 208//130
f 205//204 128//135 207//134
f 201//203 125//124 202//123
f 4//4 1//1 3//3
f 6//7 4//4 5//5
f 4//4 6//7 8//10
f 9//8 10//33 11//11
f 42//39 46//44 48//46
f 13//34 12//9 11//11
f 50//13 15//87 16//14
f 14//12 16//14 101//16
f 101//16 16//14 19//89
f 101//16 19//89 20//18
f 26//22 24//19 23//21
f 22//24 27//88 28//25
f 31//28 25//23 29//26
f 29//26 30//27 32//29
f 11//11 10//33 35//32
f 15//87 50//13 33//31
f 35//32 36//92 13//34
f 37//36 38//38 40//37
f 38//38 41//42 42//39
f 39//35 40//37 44//41
f 42//39 45//43 46//44
f 25//23 23//21 28//25
f 49//91 48//46 47//45
f 48//46 49//91 50//13
f 21//20 51//47 102//94
f 24//19 52//77 51//47
f 54//49 39//35 53//76
f 53//76 39//35 55//48
f 37//36 54//49 56//105
f 58//72 2//2 57//50
f 59//51 61//53 62//55
f 60//52 64//98 65//57
f 62//55 65//57 66//82
f 67//102 12//9 13//34
f 12//9 67//102 8//10
f 9//8 68//58 10//33
f 71//61 45//43 70//60
f 71//61 72//62 73//181
f 121//119 209//206 210//120
f 21//20 22//24 23//21
f 77//64 78//66 20//18
f 83//108 89//75 80//109
f 79//65 81//67 78//66
f 84//117 82//68 83//108
f 82//68 84//117 120//69
f 85//70 86//71 57//50
f 86//71 85//70 62//55
f 62//55 66//82 86//71
f 60//52 88//73 53//76
f 54//49 53//76 88//73
f 102//94 51//47 91//99
f 90//79 91//99 51//47
f 86//71 94//83 95//81
f 54//49 96//85 56//105
f 97//106 56//105 96//85
f 85//70 98//84 99//86
f 95//81 94//83 100//107
f 3//3 2//2 26//22
f 5//5 3//3 25//23
f 7//6 4//4 38//38
f 41//42 38//38 8//10
f 50//13 14//12 48//46
f 44//41 14//12 101//16
f 43//40 101//16 17//15
f 16//14 15//87 27//88
f 16//14 27//88 22//24
f 19//89 16//14 22//24
f 19//89 102//94 20//18
f 102//94 19//89 21//20
f 8//10 67//102 75//170
f 30//27 28//25 34//30
f 103//90 30//27 10//33
f 33//31 50//13 49//91
f 49//91 36//92 35//32
f 49//91 47//45 36//92
f 36//92 104//93 13//34
f 55//48 43//40 76//95
f 52//77 24//19 105//96
f 105//96 2//2 58//72
f 57//50 7//6 106//97
f 37//36 56//105 106//97
f 88//73 60//52 59//51
f 107//54 88//73 59//51
f 87//74 88//73 107//54
f 64//98 90//79 65//57
f 94//83 66//82 108//100
f 90//79 93//78 108//100
f 98//84 57//50 106//97
f 58//72 95//81 92//80
f 47//45 71//61 104//93
f 31//28 32//29 103//90
f 69//59 31//28 109//101
f 109//101 103//90 68//58
f 71//61 73//181 104//93
f 74//63 5//5 110//103
f 69//59 166//176 110//103
f 72//62 70//60 111//104
f 8//10 75//170 111//104
f 112//144 92//80 95//81
f 106//97 97//106 98//84
f 8//10 6//7 9//8
f 77//64 102//94 79//65
f 89//75 55//48 80//109
f 82//68 81//67 60//52
f 91//99 64//98 81//67
f 84//117 83//108 113//116
f 113//116 83//108 80//109
f 81//67 114//114 78//66
f 20//18 116//111 117//112
f 115//110 17//15 117//112
f 78//66 118//115 116//111
f 119//113 76//95 115//110
f 84//117 121//119 122//118
f 81//67 120//69 114//114
f 120//69 122//118 210//120
f 5//5 25//23 69//59
f 115//110 123//122 119//113
f 124//121 116//111 118//115
f 117//112 124//121 123//122
f 128//135 202//123 126//125
f 204//127 127//129 126//125
f 129//128 130//131 127//129
f 131//138 207//134 128//135
f 208//130 133//133 130//131
f 133//133 207//134 131//138
f 134//140 133//133 131//138
f 133//133 134//140 130//131
f 136//139 128//135 135//136
f 135//136 127//129 137//137
f 134//140 136//139 137//137
f 140//142 99//86 139//146
f 141//147 96//85 140//142
f 97//106 142//154 143//143
f 92//80 144//145 138//141
f 98//84 143//143 139//146
f 142//154 97//106 141//147
f 142//154 145//155 143//143
f 147//148 138//141 146//152
f 139//146 148//161 149//149
f 140//142 149//149 150//150
f 112//144 151//153 154//151
f 144//145 154//151 146//152
f 100//107 147//148 151//153
f 148//161 139//146 143//143
f 141//147 150//150 145//155
f 151//153 153//157 154//151
f 155//166 143//143 152//156
f 143//143 155//166 148//161
f 159//168 146//152 158//159
f 152//156 163//165 155//166
f 146//152 160//167 147//148
f 146//152 159//168 160//167
f 149//149 161//162 162//163
f 156//160 164//164 157//158
f 147//148 160//167 164//164
f 161//162 148//161 155//166
f 152//156 162//163 163//165
f 157//158 164//164 158//159
f 159//168 158//159 164//164
f 69//59 165//172 166//176
f 168//173 68//58 167//169
f 109//101 171//185 165//172
f 171//185 109//101 168//173
f 172//179 104//93 73//181
f 104//93 172//179 170//171
f 173//175 111//104 169//174
f 170//171 176//180 169//174
f 177//182 72//62 178//188
f 165//172 179//186 180//183
f 167//169 181//187 175//178
f 179//186 171//185 175//178
f 73//181 177//182 176//180
f 174//177 180//183 181//187
f 178//188 173//175 182//184
f 184//192 177//182 183//189
f 188//191 175//178 186//190
f 176//180 187//197 182//184
f 179//186 188//191 185//194
f 176//180 184//192 187//197
f 183//189 189//207 190//193
f 183//189 191//208 189//207
f 185//194 192//199 193//195
f 194//200 180//183 193//195
f 196//209 188//191 195//196
f 198//201 182//184 197//198
f 188//191 196//209 192//199
f 199//210 184//192 190//193
f 184//192 199//210 197//198
f 186//190 194//200 195//196
f 191//208 183//189 198//201
f 195//196 200//202 196//209
f 191//208 198//201 189//207
f 179//186 185//194 180//183
f 123//122 124//121 202//123
f 203//126 201//203 124//121
f 204//127 203//126 212//211
f 119//113 123//122 205//204
f 129//128 204//127 118//115
f 206//205 205//204 207//134
f 208//130 129//128 118//115
f 113//116 119//113 206//205
f 210//120 208//130 114//114
f 121//119 113//116 209//206
f 207//134 132//132 209//206
f 210//120 209//206 132//132
f 202//123 128//135 205//204
f 201//203 203//126 125//124
f 190//193 197//198 199//210
f 190//193 198//201 197//198
f 189//207 198//201 190//193
f 200//202 192//199 196//209
f 192//199 200//202 193//195
f 194//200 193//195 200//202
f 123//122 202//123 211//212
f 205//204 123//122 211//212
f 203//126 124//121 212//211
f 124//121 204//127 212//211
f 202//123 205//204 211//212
