# This file uses centimeters as units for non-parametric coordinates.

mtllib pic4.mtl
g default
v -2.843293 -0.103688 5.382694
v 2.843293 -0.103688 5.382694
v -2.843293 0.103688 5.382694
v 2.843293 0.103688 5.382694
v -2.843293 0.103688 -5.412696
v 2.843293 0.103688 -5.412696
v -2.843293 -0.103688 -5.412696
v 2.843293 -0.103688 -5.412696
v -2.433306 0.103688 4.563568
v 2.433306 0.103688 4.563568
v 2.433306 0.103688 -4.694160
v -2.433306 0.103688 -4.694160
v -2.843293 0.186196 5.382694
v 2.843293 0.186196 5.382694
v 2.433306 0.186196 4.563568
v -2.433306 0.186196 4.563568
v 2.843293 0.186196 -5.412696
v 2.433306 0.186196 -4.704630
v -2.843293 0.186196 -5.412696
v -2.433306 0.186196 -4.704630
v -2.576847 0.219445 -4.911520
v 2.576847 0.219445 -4.911520
v 2.576847 0.219445 4.800533
v -2.576847 0.219445 4.800533
v -2.707018 0.219445 -5.175119
v 2.707018 0.219445 -5.175119
v 2.707018 0.219445 5.111080
v -2.707018 0.219445 5.111080
v -2.552164 0.112473 -4.766647
v -2.552164 0.112473 -3.813318
v -2.552164 0.112473 -2.859988
v -2.552164 0.112473 -1.906659
v -2.552164 0.112473 -0.953329
v -2.552164 0.112473 0.000000
v -2.552164 0.112473 0.953330
v -2.552164 0.112473 1.906659
v -2.552164 0.112473 2.859988
v -2.552164 0.112473 3.813318
v -2.552164 0.112473 4.766647
v -2.041732 0.116407 -4.766647
v -2.041732 0.116407 -3.813318
v -2.041732 0.116407 -2.859988
v -2.041732 0.116407 -1.906659
v -2.041732 0.116407 -0.953329
v -2.041732 0.116407 0.000000
v -2.041732 0.116407 0.953330
v -2.041732 0.116407 1.906659
v -2.041732 0.116407 2.859988
v -2.041732 0.116407 3.813318
v -2.041732 0.116407 4.766647
v -1.531299 0.120341 -4.766647
v -1.531299 0.120341 -3.813318
v -1.531299 0.120341 -2.859988
v -1.531299 0.120341 -1.906659
v -1.531299 0.120341 -0.953329
v -1.531299 0.120341 0.000000
v -1.531299 0.120341 0.953330
v -1.531299 0.120341 1.906659
v -1.531299 0.120341 2.859988
v -1.531299 0.120341 3.813318
v -1.531299 0.120341 4.766647
v -1.020866 0.124275 -4.766647
v -1.020866 0.124275 -3.813318
v -1.020866 0.124275 -2.859988
v -1.020866 0.124275 -1.906659
v -1.020866 0.124275 -0.953329
v -1.020866 0.124275 0.000000
v -1.020866 0.124275 0.953330
v -1.020866 0.124275 1.906659
v -1.020866 0.124275 2.859988
v -1.020866 0.124275 3.813318
v -1.020866 0.124275 4.766647
v -0.510433 0.128209 -4.766647
v -0.510433 0.128209 -3.813318
v -0.510433 0.128209 -2.859988
v -0.510433 0.128209 -1.906659
v -0.510433 0.128209 -0.953329
v -0.510433 0.128209 0.000000
v -0.510433 0.128209 0.953330
v -0.510433 0.128209 1.906659
v -0.510433 0.128209 2.859988
v -0.510433 0.128209 3.813318
v -0.510433 0.128209 4.766647
v -0.000000 0.132142 -4.766647
v -0.000000 0.132142 -3.813318
v -0.000000 0.132142 -2.859988
v -0.000000 0.132142 -1.906659
v -0.000000 0.132142 -0.953329
v 0.000000 0.132142 0.000000
v 0.000000 0.132142 0.953330
v 0.000000 0.132142 1.906659
v 0.000000 0.132142 2.859988
v 0.000000 0.132142 3.813318
v 0.000000 0.132142 4.766647
v 0.510433 0.136076 -4.766647
v 0.510433 0.136076 -3.813318
v 0.510433 0.136076 -2.859988
v 0.510433 0.136076 -1.906659
v 0.510433 0.136076 -0.953329
v 0.510433 0.136076 -0.000000
v 0.510433 0.136076 0.953330
v 0.510433 0.136076 1.906659
v 0.510433 0.136076 2.859988
v 0.510433 0.136076 3.813318
v 0.510433 0.136076 4.766647
v 1.020866 0.140010 -4.766647
v 1.020866 0.140010 -3.813318
v 1.020866 0.140010 -2.859988
v 1.020866 0.140010 -1.906659
v 1.020866 0.140010 -0.953329
v 1.020866 0.140010 -0.000000
v 1.020866 0.140010 0.953330
v 1.020866 0.140010 1.906659
v 1.020866 0.140010 2.859988
v 1.020866 0.140010 3.813318
v 1.020866 0.140010 4.766647
v 1.531299 0.143944 -4.766647
v 1.531299 0.143944 -3.813318
v 1.531299 0.143944 -2.859988
v 1.531299 0.143944 -1.906659
v 1.531299 0.143944 -0.953329
v 1.531299 0.143944 -0.000000
v 1.531299 0.143944 0.953330
v 1.531299 0.143944 1.906659
v 1.531299 0.143944 2.859988
v 1.531299 0.143944 3.813318
v 1.531299 0.143944 4.766647
v 2.041732 0.147878 -4.766647
v 2.041732 0.147878 -3.813318
v 2.041732 0.147878 -2.859988
v 2.041732 0.147878 -1.906659
v 2.041732 0.147878 -0.953329
v 2.041732 0.147878 -0.000000
v 2.041732 0.147878 0.953330
v 2.041732 0.147878 1.906659
v 2.041732 0.147878 2.859988
v 2.041732 0.147878 3.813318
v 2.041732 0.147878 4.766647
v 2.552164 0.151811 -4.766647
v 2.552164 0.151811 -3.813318
v 2.552164 0.151811 -2.859988
v 2.552164 0.151811 -1.906659
v 2.552164 0.151811 -0.953329
v 2.552164 0.151811 -0.000000
v 2.552164 0.151811 0.953330
v 2.552164 0.151811 1.906659
v 2.552164 0.151811 2.859988
v 2.552164 0.151811 3.813318
v 2.552164 0.151811 4.766647
vt 0.375000 0.000000
vt 0.625000 0.000000
vt 0.375000 0.250000
vt 0.625000 0.250000
vt 0.375000 0.500000
vt 0.625000 0.500000
vt 0.375000 0.750000
vt 0.625000 0.750000
vt 0.375000 1.000000
vt 0.625000 1.000000
vt 0.875000 0.000000
vt 0.875000 0.250000
vt 0.125000 0.000000
vt 0.125000 0.250000
vt 0.375000 0.250000
vt 0.625000 0.250000
vt 0.625000 0.500000
vt 0.375000 0.500000
vt 0.375000 0.250000
vt 0.625000 0.250000
vt 0.625000 0.250000
vt 0.375000 0.250000
vt 0.625000 0.500000
vt 0.625000 0.500000
vt 0.375000 0.500000
vt 0.375000 0.500000
vt 0.375000 0.500000
vt 0.625000 0.500000
vt 0.625000 0.250000
vt 0.375000 0.250000
vt 0.375000 0.500000
vt 0.625000 0.500000
vt 0.625000 0.250000
vt 0.375000 0.250000
vt 0.000000 0.000000
vt 0.100000 0.000000
vt 0.100000 0.100000
vt 0.000000 0.100000
vt 0.200000 0.000000
vt 0.200000 0.100000
vt 0.300000 0.000000
vt 0.300000 0.100000
vt 0.400000 0.000000
vt 0.400000 0.100000
vt 0.500000 0.000000
vt 0.500000 0.100000
vt 0.600000 0.000000
vt 0.600000 0.100000
vt 0.700000 0.000000
vt 0.700000 0.100000
vt 0.800000 0.000000
vt 0.800000 0.100000
vt 0.900000 0.000000
vt 0.900000 0.100000
vt 1.000000 0.000000
vt 1.000000 0.100000
vt 0.100000 0.200000
vt 0.000000 0.200000
vt 0.200000 0.200000
vt 0.300000 0.200000
vt 0.400000 0.200000
vt 0.500000 0.200000
vt 0.600000 0.200000
vt 0.700000 0.200000
vt 0.800000 0.200000
vt 0.900000 0.200000
vt 1.000000 0.200000
vt 0.100000 0.300000
vt 0.000000 0.300000
vt 0.200000 0.300000
vt 0.300000 0.300000
vt 0.400000 0.300000
vt 0.500000 0.300000
vt 0.600000 0.300000
vt 0.700000 0.300000
vt 0.800000 0.300000
vt 0.900000 0.300000
vt 1.000000 0.300000
vt 0.100000 0.400000
vt 0.000000 0.400000
vt 0.200000 0.400000
vt 0.300000 0.400000
vt 0.400000 0.400000
vt 0.500000 0.400000
vt 0.600000 0.400000
vt 0.700000 0.400000
vt 0.800000 0.400000
vt 0.900000 0.400000
vt 1.000000 0.400000
vt 0.100000 0.500000
vt 0.000000 0.500000
vt 0.200000 0.500000
vt 0.300000 0.500000
vt 0.400000 0.500000
vt 0.500000 0.500000
vt 0.600000 0.500000
vt 0.700000 0.500000
vt 0.800000 0.500000
vt 0.900000 0.500000
vt 1.000000 0.500000
vt 0.100000 0.600000
vt 0.000000 0.600000
vt 0.200000 0.600000
vt 0.300000 0.600000
vt 0.400000 0.600000
vt 0.500000 0.600000
vt 0.600000 0.600000
vt 0.700000 0.600000
vt 0.800000 0.600000
vt 0.900000 0.600000
vt 1.000000 0.600000
vt 0.100000 0.700000
vt 0.000000 0.700000
vt 0.200000 0.700000
vt 0.300000 0.700000
vt 0.400000 0.700000
vt 0.500000 0.700000
vt 0.600000 0.700000
vt 0.700000 0.700000
vt 0.800000 0.700000
vt 0.900000 0.700000
vt 1.000000 0.700000
vt 0.100000 0.800000
vt 0.000000 0.800000
vt 0.200000 0.800000
vt 0.300000 0.800000
vt 0.400000 0.800000
vt 0.500000 0.800000
vt 0.600000 0.800000
vt 0.700000 0.800000
vt 0.800000 0.800000
vt 0.900000 0.800000
vt 1.000000 0.800000
vt 0.100000 0.900000
vt 0.000000 0.900000
vt 0.200000 0.900000
vt 0.300000 0.900000
vt 0.400000 0.900000
vt 0.500000 0.900000
vt 0.600000 0.900000
vt 0.700000 0.900000
vt 0.800000 0.900000
vt 0.900000 0.900000
vt 1.000000 0.900000
vt 0.100000 1.000000
vt 0.000000 1.000000
vt 0.200000 1.000000
vt 0.300000 1.000000
vt 0.400000 1.000000
vt 0.500000 1.000000
vt 0.600000 1.000000
vt 0.700000 1.000000
vt 0.800000 1.000000
vt 0.900000 1.000000
vt 1.000000 1.000000
vn 0.000000 0.000000 1.000000
vn 0.000000 0.000000 1.000000
vn 0.000000 0.000000 1.000000
vn 0.000000 0.000000 1.000000
vn 0.000000 -1.000000 0.000000
vn 0.000000 -1.000000 0.000000
vn 0.000000 -1.000000 0.000000
vn 0.000000 -1.000000 0.000000
vn 0.000000 0.000000 -1.000000
vn 0.000000 0.000000 -1.000000
vn 0.000000 0.000000 -1.000000
vn 0.000000 0.000000 -1.000000
vn 0.000000 -1.000000 0.000000
vn 0.000000 -1.000000 0.000000
vn 0.000000 -1.000000 0.000000
vn 0.000000 -1.000000 0.000000
vn 1.000000 0.000000 0.000000
vn 1.000000 0.000000 0.000000
vn 1.000000 0.000000 0.000000
vn 1.000000 0.000000 0.000000
vn -1.000000 0.000000 0.000000
vn -1.000000 0.000000 0.000000
vn -1.000000 0.000000 0.000000
vn -1.000000 0.000000 0.000000
vn -0.070465 0.993774 0.086297
vn 0.070465 0.993774 0.086297
vn 0.099469 0.994238 0.039954
vn -0.099469 0.994238 0.039954
vn 0.086021 0.992263 -0.089526
vn 0.105049 0.993481 -0.044268
vn -0.086021 0.992263 -0.089526
vn -0.105049 0.993481 -0.044268
vn 0.000000 0.000000 1.000000
vn 0.000000 0.000000 1.000000
vn 0.000000 0.000000 -1.000000
vn 0.000000 0.000000 -1.000000
vn 0.000000 0.000000 -1.000000
vn 0.000000 0.000000 -1.000000
vn 1.000000 0.000000 0.000000
vn 1.000000 0.000000 0.000000
vn -1.000000 -0.000001 0.000000
vn -1.000000 -0.000001 0.000000
vn -1.000000 -0.000001 0.000000
vn -1.000000 -0.000001 0.000000
vn 0.000000 0.000000 -1.000000
vn 0.000000 0.000000 -1.000000
vn 0.000000 0.125897 0.992043
vn 0.000000 0.125897 0.992043
vn 0.000000 0.125897 0.992043
vn 0.000000 0.125897 0.992043
vn -1.000000 0.000000 0.000000
vn -1.000000 0.000000 0.000000
vn 1.000000 0.000000 0.000000
vn 1.000000 0.000000 0.000000
vn 1.000000 0.000000 0.000000
vn 1.000000 0.000000 0.000000
vn -0.023897 0.999519 0.019779
vn 0.023897 0.999519 0.019779
vn 0.138340 0.988388 0.062863
vn -0.138340 0.988388 0.062863
vn -0.019979 0.999610 -0.019538
vn -0.133880 0.989315 -0.057716
vn 0.019979 0.999609 -0.019538
vn 0.133880 0.989315 -0.057716
vn -0.007707 0.999970 0.000000
vn -0.007707 0.999970 0.000000
vn -0.007707 0.999970 0.000000
vn -0.007707 0.999970 0.000000
vn -0.007707 0.999970 0.000000
vn -0.007707 0.999970 0.000000
vn -0.007707 0.999970 0.000000
vn -0.007707 0.999970 0.000000
vn -0.007707 0.999970 0.000000
vn -0.007707 0.999970 0.000000
vn -0.007707 0.999970 0.000000
vn -0.007707 0.999970 0.000000
vn -0.007707 0.999970 0.000000
vn -0.007707 0.999970 0.000000
vn -0.007707 0.999970 0.000000
vn -0.007707 0.999970 0.000000
vn -0.007707 0.999970 0.000000
vn -0.007707 0.999970 0.000000
vn -0.007707 0.999970 0.000000
vn -0.007707 0.999970 0.000000
vn -0.007707 0.999970 0.000000
vn -0.007707 0.999970 0.000000
vn -0.007707 0.999970 0.000000
vn -0.007707 0.999970 0.000000
vn -0.007707 0.999970 0.000000
vn -0.007707 0.999970 0.000000
vn -0.007707 0.999970 0.000000
vn -0.007707 0.999970 0.000000
vn -0.007707 0.999970 0.000000
vn -0.007707 0.999970 0.000000
vn -0.007707 0.999970 0.000000
vn -0.007707 0.999970 0.000000
vn -0.007707 0.999970 0.000000
vn -0.007707 0.999970 0.000000
vn -0.007707 0.999970 0.000000
vn -0.007707 0.999970 0.000000
vn -0.007707 0.999970 0.000000
vn -0.007707 0.999970 0.000000
vn -0.007707 0.999970 0.000000
vn -0.007707 0.999970 0.000000
vn -0.007707 0.999970 0.000000
vn -0.007707 0.999970 0.000000
vn -0.007707 0.999970 0.000000
vn -0.007707 0.999970 0.000000
vn -0.007707 0.999970 0.000000
vn -0.007707 0.999970 0.000000
vn -0.007707 0.999970 0.000000
vn -0.007707 0.999970 0.000000
vn -0.007707 0.999970 0.000000
vn -0.007707 0.999970 0.000000
vn -0.007707 0.999970 0.000000
vn -0.007707 0.999970 0.000000
vn -0.007707 0.999970 0.000000
vn -0.007707 0.999970 0.000000
vn -0.007707 0.999970 0.000000
vn -0.007707 0.999970 0.000000
vn -0.007707 0.999970 0.000000
vn -0.007707 0.999970 0.000000
vn -0.007707 0.999970 0.000000
vn -0.007707 0.999970 0.000000
vn -0.007707 0.999970 0.000000
vn -0.007707 0.999970 0.000000
vn -0.007707 0.999970 0.000000
vn -0.007707 0.999970 0.000000
vn -0.007707 0.999970 0.000000
vn -0.007707 0.999970 0.000000
vn -0.007707 0.999970 0.000000
vn -0.007707 0.999970 0.000000
vn -0.007707 0.999970 0.000000
vn -0.007707 0.999970 0.000000
vn -0.007707 0.999970 0.000000
vn -0.007707 0.999970 0.000000
vn -0.007707 0.999970 0.000000
vn -0.007707 0.999970 0.000000
vn -0.007707 0.999970 0.000000
vn -0.007707 0.999970 0.000000
vn -0.007707 0.999970 0.000000
vn -0.007707 0.999970 0.000000
vn -0.007707 0.999970 0.000000
vn -0.007707 0.999970 0.000000
vn -0.007707 0.999970 0.000000
vn -0.007707 0.999970 0.000000
vn -0.007707 0.999970 0.000000
vn -0.007707 0.999970 0.000000
vn -0.007707 0.999970 0.000000
vn -0.007707 0.999970 0.000000
vn -0.007707 0.999970 0.000000
vn -0.007707 0.999970 0.000000
vn -0.007707 0.999970 0.000000
vn -0.007707 0.999970 0.000000
vn -0.007707 0.999970 0.000000
vn -0.007707 0.999970 0.000000
vn -0.007707 0.999970 0.000000
vn -0.007707 0.999970 0.000000
vn -0.007707 0.999970 0.000000
vn -0.007707 0.999970 0.000000
vn -0.007707 0.999970 0.000000
vn -0.007707 0.999970 0.000000
vn -0.007707 0.999970 0.000000
vn -0.007707 0.999970 0.000000
vn -0.007707 0.999970 0.000000
vn -0.007707 0.999970 0.000000
vn -0.007707 0.999970 0.000000
vn -0.007707 0.999970 0.000000
vn -0.007707 0.999970 0.000000
vn -0.007707 0.999970 0.000000
vn -0.007707 0.999970 0.000000
vn -0.007707 0.999970 0.000000
vn -0.007707 0.999970 0.000000
vn -0.007707 0.999970 0.000000
vn -0.007707 0.999970 0.000000
vn -0.007707 0.999970 0.000000
vn -0.007707 0.999970 0.000000
vn -0.007707 0.999970 0.000000
vn -0.007707 0.999970 0.000000
vn -0.007707 0.999970 0.000000
vn -0.007707 0.999970 0.000000
vn -0.007707 0.999970 0.000000
vn -0.007707 0.999970 0.000000
vn -0.007707 0.999970 0.000000
vn -0.007707 0.999970 0.000000
g pCube2
usemtl blinn1SG
f 1/1/1 2/2/2 4/4/3 3/3/4
f 9/15/5 12/18/6 11/17/7 10/16/8
f 5/5/9 6/6/10 8/8/11 7/7/12
f 7/7/13 8/8/14 2/10/15 1/9/16
f 2/2/17 8/11/18 6/12/19 4/4/20
f 7/13/21 1/1/22 3/3/23 5/14/24
f 13/19/25 14/20/26 27/33/27 28/34/28
f 14/20/26 17/23/29 26/32/30 27/33/27
f 17/23/29 19/25/31 25/31/32 26/32/30
f 19/25/31 13/19/25 28/34/28 25/31/32
f 3/3/4 4/4/3 14/20/33 13/19/34
f 10/16/35 9/15/36 16/22/37 15/21/38
f 4/4/20 6/6/19 17/23/39 14/20/40
f 11/17/41 10/16/42 15/21/43 18/24/44
f 6/6/10 5/5/9 19/25/45 17/23/46
f 12/18/47 11/17/48 18/24/49 20/26/50
f 5/5/24 3/3/23 13/19/51 19/25/52
f 9/15/53 12/18/54 20/26/55 16/22/56
f 22/28/57 21/27/58 20/26/59 18/24/60
f 23/29/61 22/28/57 18/24/60 15/21/62
f 24/30/63 23/29/61 15/21/62 16/22/64
f 21/27/58 24/30/63 16/22/64 20/26/59
f 26/32/30 25/31/32 21/27/58 22/28/57
f 27/33/27 26/32/30 22/28/57 23/29/61
f 28/34/28 27/33/27 23/29/61 24/30/63
f 25/31/32 28/34/28 24/30/63 21/27/58
usemtl lambert2SG
f 29/35/65 30/36/66 41/37/67 40/38/68
f 30/36/66 31/39/69 42/40/70 41/37/67
f 31/39/69 32/41/71 43/42/72 42/40/70
f 32/41/71 33/43/73 44/44/74 43/42/72
f 33/43/73 34/45/75 45/46/76 44/44/74
f 34/45/75 35/47/77 46/48/78 45/46/76
f 35/47/77 36/49/79 47/50/80 46/48/78
f 36/49/79 37/51/81 48/52/82 47/50/80
f 37/51/81 38/53/83 49/54/84 48/52/82
f 38/53/83 39/55/85 50/56/86 49/54/84
f 40/38/68 41/37/67 52/57/87 51/58/88
f 41/37/67 42/40/70 53/59/89 52/57/87
f 42/40/70 43/42/72 54/60/90 53/59/89
f 43/42/72 44/44/74 55/61/91 54/60/90
f 44/44/74 45/46/76 56/62/92 55/61/91
f 45/46/76 46/48/78 57/63/93 56/62/92
f 46/48/78 47/50/80 58/64/94 57/63/93
f 47/50/80 48/52/82 59/65/95 58/64/94
f 48/52/82 49/54/84 60/66/96 59/65/95
f 49/54/84 50/56/86 61/67/97 60/66/96
f 51/58/88 52/57/87 63/68/98 62/69/99
f 52/57/87 53/59/89 64/70/100 63/68/98
f 53/59/89 54/60/90 65/71/101 64/70/100
f 54/60/90 55/61/91 66/72/102 65/71/101
f 55/61/91 56/62/92 67/73/103 66/72/102
f 56/62/92 57/63/93 68/74/104 67/73/103
f 57/63/93 58/64/94 69/75/105 68/74/104
f 58/64/94 59/65/95 70/76/106 69/75/105
f 59/65/95 60/66/96 71/77/107 70/76/106
f 60/66/96 61/67/97 72/78/108 71/77/107
f 62/69/99 63/68/98 74/79/109 73/80/110
f 63/68/98 64/70/100 75/81/111 74/79/109
f 64/70/100 65/71/101 76/82/112 75/81/111
f 65/71/101 66/72/102 77/83/113 76/82/112
f 66/72/102 67/73/103 78/84/114 77/83/113
f 67/73/103 68/74/104 79/85/115 78/84/114
f 68/74/104 69/75/105 80/86/116 79/85/115
f 69/75/105 70/76/106 81/87/117 80/86/116
f 70/76/106 71/77/107 82/88/118 81/87/117
f 71/77/107 72/78/108 83/89/119 82/88/118
f 73/80/110 74/79/109 85/90/120 84/91/121
f 74/79/109 75/81/111 86/92/122 85/90/120
f 75/81/111 76/82/112 87/93/123 86/92/122
f 76/82/112 77/83/113 88/94/124 87/93/123
f 77/83/113 78/84/114 89/95/125 88/94/124
f 78/84/114 79/85/115 90/96/126 89/95/125
f 79/85/115 80/86/116 91/97/127 90/96/126
f 80/86/116 81/87/117 92/98/128 91/97/127
f 81/87/117 82/88/118 93/99/129 92/98/128
f 82/88/118 83/89/119 94/100/130 93/99/129
f 84/91/121 85/90/120 96/101/131 95/102/132
f 85/90/120 86/92/122 97/103/133 96/101/131
f 86/92/122 87/93/123 98/104/134 97/103/133
f 87/93/123 88/94/124 99/105/135 98/104/134
f 88/94/124 89/95/125 100/106/136 99/105/135
f 89/95/125 90/96/126 101/107/137 100/106/136
f 90/96/126 91/97/127 102/108/138 101/107/137
f 91/97/127 92/98/128 103/109/139 102/108/138
f 92/98/128 93/99/129 104/110/140 103/109/139
f 93/99/129 94/100/130 105/111/141 104/110/140
f 95/102/132 96/101/131 107/112/142 106/113/143
f 96/101/131 97/103/133 108/114/144 107/112/142
f 97/103/133 98/104/134 109/115/145 108/114/144
f 98/104/134 99/105/135 110/116/146 109/115/145
f 99/105/135 100/106/136 111/117/147 110/116/146
f 100/106/136 101/107/137 112/118/148 111/117/147
f 101/107/137 102/108/138 113/119/149 112/118/148
f 102/108/138 103/109/139 114/120/150 113/119/149
f 103/109/139 104/110/140 115/121/151 114/120/150
f 104/110/140 105/111/141 116/122/152 115/121/151
f 106/113/143 107/112/142 118/123/153 117/124/154
f 107/112/142 108/114/144 119/125/155 118/123/153
f 108/114/144 109/115/145 120/126/156 119/125/155
f 109/115/145 110/116/146 121/127/157 120/126/156
f 110/116/146 111/117/147 122/128/158 121/127/157
f 111/117/147 112/118/148 123/129/159 122/128/158
f 112/118/148 113/119/149 124/130/160 123/129/159
f 113/119/149 114/120/150 125/131/161 124/130/160
f 114/120/150 115/121/151 126/132/162 125/131/161
f 115/121/151 116/122/152 127/133/163 126/132/162
f 117/124/154 118/123/153 129/134/164 128/135/165
f 118/123/153 119/125/155 130/136/166 129/134/164
f 119/125/155 120/126/156 131/137/167 130/136/166
f 120/126/156 121/127/157 132/138/168 131/137/167
f 121/127/157 122/128/158 133/139/169 132/138/168
f 122/128/158 123/129/159 134/140/170 133/139/169
f 123/129/159 124/130/160 135/141/171 134/140/170
f 124/130/160 125/131/161 136/142/172 135/141/171
f 125/131/161 126/132/162 137/143/173 136/142/172
f 126/132/162 127/133/163 138/144/174 137/143/173
f 128/135/165 129/134/164 140/145/175 139/146/176
f 129/134/164 130/136/166 141/147/177 140/145/175
f 130/136/166 131/137/167 142/148/178 141/147/177
f 131/137/167 132/138/168 143/149/179 142/148/178
f 132/138/168 133/139/169 144/150/180 143/149/179
f 133/139/169 134/140/170 145/151/181 144/150/180
f 134/140/170 135/141/171 146/152/182 145/151/181
f 135/141/171 136/142/172 147/153/183 146/152/182
f 136/142/172 137/143/173 148/154/184 147/153/183
f 137/143/173 138/144/174 149/155/185 148/154/184
